<svg width="140" height="26" viewBox="0 0 140 26" fill="none" xmlns="http://www.w3.org/2000/svg">
<path fill-rule="evenodd" clip-rule="evenodd" d="M115.41 6.39699C113.676 6.39699 112.282 5.00387 112.282 3.21271C112.282 1.44998 113.704 0 115.467 0C117.229 0 118.679 1.39312 118.679 3.15585C118.679 4.94701 117.229 6.39699 115.41 6.39699ZM50.7861 25.1046V3.32644H56.0458V9.29696C56.0458 9.29696 58.3772 7.30679 61.4193 7.30679C66.5653 7.30679 69.6075 11.6567 69.6075 16.4047C69.6075 21.2664 66.5085 25.5311 61.5899 25.5311C59.287 25.5311 57.5811 24.8772 55.9605 23.285V25.1046H50.7861ZM39.4989 25.5311C34.1255 25.5311 30.4294 22.2615 30.4294 16.4047C30.4294 11.1165 34.2108 7.30679 39.3568 7.30679C44.3891 7.30679 47.943 10.6332 47.943 16.8596L47.9441 17.0109C47.9455 17.099 47.9478 17.179 47.9499 17.2554V17.2555V17.2557V17.2558V17.2559V17.2561V17.2561V17.2562V17.2562C47.956 17.4697 47.9613 17.6553 47.943 17.9116H35.6608C36.1156 19.987 37.7647 20.9821 39.7548 20.9821C41.39 20.9821 42.4944 19.8953 43.3779 18.7702L43.5362 18.5655C43.5362 18.5655 46.1143 20.052 47.3239 20.7787L47.6587 20.9821C46.1234 23.7115 43.1666 25.5311 39.4989 25.5311ZM7.14439 25.1046L0.491516 7.64796H6.06401L9.5326 17.3145L12.7169 7.64796H16.9531L20.308 17.3714L23.7481 7.64796H29.2353L22.6678 25.1046H18.0903L14.8492 15.7224L11.7218 25.1046H7.14439ZM39.2999 11.742C40.9489 11.742 41.8587 12.5381 42.4842 14.2155H35.8598C36.5137 12.595 37.5088 11.742 39.2999 11.742ZM60.2252 12.1969C62.6134 12.1969 64.3477 14.0734 64.3477 16.291C64.3477 18.7645 63.0399 20.84 60.4526 20.84C57.6948 20.84 55.9037 19.1057 55.9037 16.4047C55.9037 13.8744 57.7517 12.1969 60.2252 12.1969ZM81.0367 25.7017C75.6917 25.7017 71.5976 21.3233 71.5976 16.4616C71.5976 11.2303 75.777 7.30679 81.1505 7.30679C86.4386 7.30679 90.5611 11.1165 90.5611 16.3763C90.5611 21.6929 86.723 25.7017 81.0367 25.7017ZM81.122 12.2822C83.5955 12.2822 85.3014 14.0449 85.3014 16.291C85.3014 19.0204 83.7093 20.6978 81.0936 20.6978C78.677 20.6978 76.8858 18.8782 76.8858 16.5469C76.8858 14.1587 78.5632 12.2822 81.122 12.2822ZM103.838 25.1046H99.1189L91.8121 7.64796H97.7258L101.536 17.8547L105.118 7.64796H110.69L103.838 25.1046ZM118.082 7.64796H112.794V25.1046H118.082V7.64796ZM120.926 16.4616C120.926 21.3233 125.02 25.7017 130.365 25.7017C136.051 25.7017 139.889 21.6929 139.889 16.3763C139.889 11.1165 135.767 7.30679 130.478 7.30679C125.105 7.30679 120.926 11.2303 120.926 16.4616ZM134.629 16.291C134.629 14.0449 132.923 12.2822 130.45 12.2822C127.891 12.2822 126.214 14.1587 126.214 16.5469C126.214 18.8782 128.005 20.6978 130.422 20.6978C133.037 20.6978 134.629 19.0204 134.629 16.291Z" fill="white"/>
</svg>
