<svg width="152" height="18" viewBox="0 0 152 18" fill="none" xmlns="http://www.w3.org/2000/svg">
<path d="M9.63281 0.691964C9.36161 0.651785 8.42746 0.571427 7.34263 0.571427C5.07254 0.571427 3.51563 1.95759 3.51563 4.49888V6.68862H0.954241V9.66183H3.51563V17.2857H6.58929V9.66183H9.14062L9.53237 6.68862H6.58929V4.79018C6.58929 3.93638 6.82031 3.34375 8.0558 3.34375H9.63281V0.691964ZM58.0555 4.66964C57.4729 4.92076 56.8401 5.10156 56.1872 5.17188C56.8602 4.77009 57.3725 4.13728 57.6136 3.38393C56.9908 3.75558 56.2877 4.02679 55.5544 4.16741C54.9618 3.5346 54.118 3.14286 53.1839 3.14286C51.3859 3.14286 49.9395 4.59933 49.9395 6.38728C49.9395 6.63839 49.9696 6.88951 50.0198 7.13058C47.3278 6.98995 44.9272 5.70424 43.3301 3.73549C43.0488 4.21763 42.8881 4.77009 42.8881 5.37277C42.8881 6.49777 43.4607 7.49219 44.3345 8.07478C43.8022 8.05469 43.2999 7.90402 42.868 7.66295C42.868 7.67299 42.868 7.69308 42.868 7.70312C42.868 9.28013 43.983 10.5859 45.4696 10.8873C45.1984 10.9576 44.9071 10.9978 44.6158 10.9978C44.4049 10.9978 44.204 10.9777 44.0031 10.9475C44.4149 12.2333 45.6102 13.1674 47.0366 13.1975C45.9216 14.0714 44.5254 14.5837 43.0086 14.5837C42.7374 14.5837 42.4863 14.5737 42.2252 14.5435C43.6616 15.4676 45.3691 16 47.2073 16C53.1738 16 56.4383 11.058 56.4383 6.76897C56.4383 6.62835 56.4383 6.48772 56.4283 6.3471C57.0611 5.88504 57.6136 5.3125 58.0555 4.66964ZM139.156 6.84933H135.841V16.8036H139.156V6.84933ZM139.367 3.77567C139.357 2.80134 138.654 2.05804 137.519 2.05804C136.394 2.05804 135.65 2.80134 135.65 3.77567C135.65 4.72991 136.364 5.4933 137.479 5.4933H137.499C138.654 5.4933 139.377 4.72991 139.367 3.77567ZM151.079 11.0982C151.079 8.04464 149.452 6.6183 147.272 6.6183C145.484 6.6183 144.701 7.61272 144.269 8.29576H144.289V6.84933H140.984C140.984 6.84933 141.024 7.78348 140.984 16.8036H144.289V11.2489C144.289 10.9475 144.319 10.6562 144.399 10.4353C144.64 9.84263 145.183 9.22991 146.097 9.22991C147.292 9.22991 147.774 10.144 147.774 11.4799V16.8036H151.079V11.0982Z" fill="#5E6648"/>
<path d="M99.9342 9.74219C99.9342 9.26004 99.8839 8.88839 99.8136 8.51674H92.8627V11.048H97.0413C96.8705 12.1228 95.7757 14.2221 92.8627 14.2221C90.3516 14.2221 88.3025 12.1429 88.3025 9.57143C88.3025 7 90.3516 4.92076 92.8627 4.92076C94.2991 4.92076 95.2533 5.53348 95.7958 6.0558L97.7946 4.13728C96.5089 2.93192 94.8516 2.2087 92.8627 2.2087C88.7946 2.2087 85.5 5.50335 85.5 9.57143C85.5 13.6395 88.7946 16.9342 92.8627 16.9342C97.1116 16.9342 99.9342 13.9509 99.9342 9.74219ZM108.643 8.51674H106.544V6.41741H104.434V8.51674H102.335V10.6261H104.434V12.7254H106.544V10.6261H108.643V8.51674Z" fill="white"/>
</svg>
